<?xml version="1.0" encoding="utf-8"?>
<!-- Generator: Adobe Illustrator 27.7.0, SVG Export Plug-In . SVG Version: 6.00 Build 0)  -->
<svg version="1.1" id="Layer_1" xmlns="http://www.w3.org/2000/svg" xmlns:xlink="http://www.w3.org/1999/xlink" x="0px" y="0px"
	 viewBox="0 0 500 500" style="enable-background:new 0 0 500 500;" xml:space="preserve">
<style type="text/css">
	.st0{display:none;}
	.st1{fill:#53565A;}
</style>
<g id="BACKDROP">
</g>
<g id="GUIDES" class="st0">
</g>
<g id="MARGINS" class="st0">
</g>
<g id="IMAGEM">
</g>
<g id="VECTORS">
</g>
<g id="COPY">
</g>
<g id="FOOTER">
	<path class="st1" d="M250,50C139.6,50,50,139.6,50,250s89.6,200,200,200s200-89.6,200-200S360.4,50,250,50z M336.8,220.9
		c0,0,1.5,30.9-28.2,64.6s-34.5,44.4-34.5,44.4c-1,2.1-2.6,4.2-3.7,6.2c-2.9,5.3-5.5,10.7-7.8,16.3c-1,2.3-1.8,4.7-2.7,7.1
		c-0.8,2.3-1.8,4.9-2.8,7.2c-1.5,3.3-3.4,5.6-7.2,5.7h-0.2c-3.9,0-5.8-2.3-7.2-5.7c-1-2.3-2-4.9-2.8-7.2c-0.8-2.4-1.7-4.8-2.7-7.1
		c-2.3-5.6-4.9-11-7.8-16.3c-1.1-2.1-2.7-4.1-3.7-6.2c0,0-2.4-5.3-14.1-20.2c-4.9-6.3-11.5-14.2-20.3-24.2
		c-9.6-10.9-15.9-21.4-20.1-30.8c-8.8-19.6-8.1-33.8-8.1-33.8s0-4.1,0-6.2c0-21.6,7.9-41.4,20.9-56.6c16-18.6,39.7-30.4,66.1-30.4
		c9.2,0,18.1,1.4,26.5,4.1c22.1,7,40.3,22.6,50.8,42.8c6.2,12,9.8,25.7,9.8,40.1C337.1,216.8,337,218.9,336.8,220.9L336.8,220.9z
		 M283.2,213.7c0,8.3-3.1,15.9-8.1,21.7c-6.1,7-15.1,11.5-25.1,11.5c-18.3,0-33.2-14.8-33.2-33.2c0-8,2.8-15.3,7.5-21
		c6.1-7.5,15.3-12.2,25.7-12.2C268.3,180.5,283.2,195.4,283.2,213.7z"/>
</g>
<g id="MENU">
</g>
</svg>
