<?xml version="1.0" encoding="utf-8"?>
<!-- Generator: Adobe Illustrator 27.7.0, SVG Export Plug-In . SVG Version: 6.00 Build 0)  -->
<svg version="1.1" id="Layer_1" xmlns="http://www.w3.org/2000/svg" xmlns:xlink="http://www.w3.org/1999/xlink" x="0px" y="0px"
	 viewBox="0 0 500 500" style="enable-background:new 0 0 500 500;" xml:space="preserve">
<style type="text/css">
	.st0{display:none;}
	.st1{fill:#53565A;}
</style>
<g id="BACKDROP">
</g>
<g id="GUIDES" class="st0">
</g>
<g id="MARGINS" class="st0">
</g>
<g id="IMAGEM">
</g>
<g id="VECTORS">
</g>
<g id="COPY">
</g>
<g id="FOOTER">
	<g>
		<g>
			<path class="st1" d="M250,50.3C139.7,50.3,50.3,139.7,50.3,250S139.7,449.7,250,449.7S449.7,360.3,449.7,250S360.3,50.3,250,50.3
				z M373,276.3c-6.1,28.8-22.1,54-44.3,71.8l0,0l0,0c-21.5,17.3-48.9,27.7-78.7,27.7c-47.9,0-89.5-26.8-110.8-66.2
				c-9.6-17.7-15-38-15-59.6c0-20.9,5.1-40.5,14.1-57.8c20.9-40.4,63.1-67.9,111.7-67.9c30.5,0,58.5,10.9,80.3,29l-40.7,33.4
				c-11.5-7.2-25-11.3-39.5-11.3c-32.8,0-60.6,21.1-70.7,50.5c-2.6,7.6-4,15.8-4,24.3c0,9.2,1.7,18.1,4.7,26.2
				c10.6,28.3,38,48.5,70,48.5c13.8,0,26.7-3.7,37.8-10.2c14.7-8.6,26.2-22.1,32.3-38.3H253v-49.7h68h52.6
				c1.4,7.6,2.2,15.5,2.2,23.5C375.8,259,374.8,267.8,373,276.3z"/>
		</g>
	</g>
</g>
<g id="MENU">
</g>
</svg>
