<?xml version="1.0" encoding="utf-8"?>
<!-- Generator: Adobe Illustrator 27.7.0, SVG Export Plug-In . SVG Version: 6.00 Build 0)  -->
<svg version="1.1" id="Layer_1" xmlns="http://www.w3.org/2000/svg" xmlns:xlink="http://www.w3.org/1999/xlink" x="0px" y="0px"
	 viewBox="0 0 500 500" style="enable-background:new 0 0 500 500;" xml:space="preserve">
<style type="text/css">
	.st0{display:none;}
	.st1{fill:#53565A;}
</style>
<g id="BACKDROP">
</g>
<g id="GUIDES" class="st0">
</g>
<g id="MARGINS" class="st0">
</g>
<g id="IMAGEM">
</g>
<g id="VECTORS">
</g>
<g id="COPY">
</g>
<g id="FOOTER">
	<g>
		<path class="st1" d="M282.4,250c0,17.9-14.5,32.4-32.4,32.4s-32.4-14.5-32.4-32.4s14.5-32.4,32.4-32.4
			C267.9,217.6,282.4,232.1,282.4,250z"/>
		<path class="st1" d="M333.2,187c-1.7-4.6-4.4-8.8-8-12.3c-3.4-3.5-7.6-6.3-12.3-8c-3.8-1.5-9.4-3.2-19.8-3.7
			c-11.3-0.5-14.6-0.6-43.1-0.6c-28.5,0-31.9,0.1-43.1,0.6c-10.4,0.5-16.1,2.2-19.8,3.7c-4.6,1.7-8.8,4.4-12.3,8
			c-3.5,3.4-6.3,7.6-8,12.3c-1.5,3.8-3.2,9.4-3.7,19.8c-0.5,11.3-0.6,14.6-0.6,43.1c0,28.5,0.1,31.9,0.6,43.1
			c0.5,10.4,2.2,16.1,3.7,19.8c1.7,4.6,4.4,8.8,8,12.3c3.4,3.5,7.6,6.3,12.3,8c3.8,1.5,9.4,3.2,19.8,3.7c11.3,0.5,14.6,0.6,43.1,0.6
			c28.5,0,31.9-0.1,43.1-0.6c10.4-0.5,16.1-2.2,19.8-3.7c9.3-3.6,16.7-11,20.3-20.3c1.5-3.8,3.2-9.4,3.7-19.8
			c0.5-11.3,0.6-14.6,0.6-43.1c0-28.5-0.1-31.9-0.6-43.1C336.4,196.5,334.7,190.8,333.2,187z M250,309c-32.6,0-59-26.4-59-59
			s26.4-59,59-59s59,26.4,59,59S282.6,309,250,309z M306.7,204.8c-7.6,0-13.8-6.2-13.8-13.8s6.2-13.8,13.8-13.8s13.8,6.2,13.8,13.8
			C320.4,198.7,314.3,204.8,306.7,204.8z"/>
		<path class="st1" d="M250,50C139.6,50,50,139.6,50,250s89.6,200,200,200s200-89.6,200-200S360.4,50,250,50z M364.2,297.3
			c-0.6,12.2-2.5,20.6-5.3,27.9c-6,15.4-18.2,27.6-33.6,33.6c-7.3,2.8-15.7,4.8-27.9,5.3c-12.2,0.6-16.2,0.7-47.3,0.7
			c-31.2,0-35.1-0.1-47.4-0.7c-12.2-0.6-20.6-2.5-27.9-5.3c-7.7-2.9-14.6-7.4-20.3-13.2c-5.8-5.7-10.4-12.7-13.2-20.3
			c-2.8-7.3-4.8-15.7-5.3-27.9c-0.6-12.2-0.7-16.2-0.7-47.4s0.1-35.1,0.7-47.3c0.6-12.2,2.5-20.6,5.3-27.9
			c2.9-7.7,7.4-14.6,13.3-20.3c5.7-5.8,12.7-10.4,20.3-13.2c7.3-2.8,15.7-4.8,27.9-5.3c12.2-0.6,16.2-0.7,47.3-0.7
			s35.1,0.1,47.3,0.7s20.6,2.5,27.9,5.3c7.7,2.9,14.6,7.4,20.3,13.3c5.8,5.7,10.4,12.7,13.2,20.3c2.8,7.3,4.8,15.7,5.3,27.9
			c0.6,12.2,0.7,16.2,0.7,47.3S364.7,285.1,364.2,297.3z"/>
	</g>
</g>
<g id="MENU">
</g>
</svg>
