<?xml version="1.0" encoding="utf-8"?>
<!-- Generator: Adobe Illustrator 27.7.0, SVG Export Plug-In . SVG Version: 6.00 Build 0)  -->
<svg version="1.1" id="Layer_1" xmlns="http://www.w3.org/2000/svg" xmlns:xlink="http://www.w3.org/1999/xlink" x="0px" y="0px"
	 viewBox="0 0 500 500" style="enable-background:new 0 0 500 500;" xml:space="preserve">
<style type="text/css">
	.st0{display:none;}
	.st1{fill:#53565A;}
</style>
<g id="BACKDROP">
</g>
<g id="GUIDES" class="st0">
</g>
<g id="MARGINS" class="st0">
</g>
<g id="IMAGEM">
</g>
<g id="VECTORS">
</g>
<g id="COPY">
</g>
<g id="FOOTER">
	<g>
		<path class="st1" d="M250,50C139.6,50,50,139.6,50,250s89.6,200,200,200s200-89.6,200-200S360.4,50,250,50z M324.5,363.4h-149
			c-7.1,0-12.9-5.8-12.9-12.9c0-7.1,5.8-12.9,12.9-12.9h148.8c7.2,0,13,5.8,13,12.9C337.4,357.6,331.6,363.4,324.5,363.4z
			 M337.7,238.3l-78.3,84c-2.5,2.6-5.8,4.1-9.4,4.1l0,0c-3.6,0-6.9-1.4-9.4-4l-78.3-84.2c-4.8-5.1-4.5-13.2,0.7-18.1
			c2.4-2.3,5.5-3.7,9-3.5c3.5,0.1,6.7,1.5,9.2,4.1l55.9,60.1V133.6c0-7.1,5.8-12.9,12.9-12.9s12.9,5.8,12.9,12.9v147.2l56-60.1
			c2.3-2.5,5.5-4,9-4.1c3.7,0.1,6.8,1.3,9.2,3.5c2.5,2.3,4,5.5,4.1,9C341.3,232.5,340,235.8,337.7,238.3z"/>
	</g>
</g>
<g id="MENU">
</g>
</svg>
