<?xml version="1.0" encoding="utf-8"?>
<!-- Generator: Adobe Illustrator 27.6.1, SVG Export Plug-In . SVG Version: 6.00 Build 0)  -->
<svg version="1.1" id="Layer_1" xmlns="http://www.w3.org/2000/svg" xmlns:xlink="http://www.w3.org/1999/xlink" x="0px" y="0px"
	 viewBox="0 0 1000 1000" style="enable-background:new 0 0 1000 1000;" xml:space="preserve">
<style type="text/css">
	.st0{display:none;}
	.st1{fill:#19D1C3;}
</style>
<g id="BACKDROP">
</g>
<g id="GUIDES" class="st0">
</g>
<g id="MARGINS" class="st0">
</g>
<g id="IMAGEM">
</g>
<g id="VECTORS">
</g>
<g id="FOOTER">
</g>
<g id="MENU">
</g>
<g>
	<path class="st1" d="M720.2,398.6h-30.5v-75.7c0-104.6-85.1-189.7-189.7-189.7s-189.7,85.1-189.7,189.7v75.7h-30.5
		c-32.1,0-58.2,26.1-58.2,58.2v351.9c0,32.1,26.1,58.2,58.2,58.2h440.3c32.1,0,58.2-26.1,58.2-58.2V456.7
		C778.3,424.7,752.2,398.6,720.2,398.6z M336.2,322.9c0-90.3,73.5-163.8,163.8-163.8s163.8,73.5,163.8,163.8v75.7h-62.2v-86
		c0-50.3-40.9-91.3-91.3-91.3h-20.7c-50.3,0-91.3,40.9-91.3,91.3v86h-62.2V322.9z M424.3,398.6v-86c0-36,29.3-65.3,65.3-65.3h20.7
		c36,0,65.3,29.3,65.3,65.3v86H424.3z M752.4,808.6c0,17.8-14.5,32.2-32.2,32.2H279.8c-17.8,0-32.2-14.5-32.2-32.2V456.7
		c0-17.8,14.5-32.2,32.2-32.2h43.4h88.1h177.3h88.1h43.4c17.8,0,32.2,14.5,32.2,32.2V808.6z"/>
	<path class="st1" d="M500,535.1c-31.5,0-57.2,25.7-57.2,57.2c0,27.1,18.9,49.8,44.2,55.7v77c0,7.2,5.8,13,13,13c7.2,0,13-5.8,13-13
		v-77c25.3-5.9,44.2-28.6,44.2-55.7C557.2,560.7,531.5,535.1,500,535.1z M500,623.5c-17.2,0-31.3-14-31.3-31.3
		c0-17.2,14-31.3,31.3-31.3s31.3,14,31.3,31.3C531.3,609.5,517.2,623.5,500,623.5z"/>
</g>
</svg>
