<?xml version="1.0" encoding="UTF-8"?><svg id="Layer_2" xmlns="http://www.w3.org/2000/svg" viewBox="0 0 638.79 468.68"><defs><style>.cls-1{fill:none;stroke:#005387;stroke-linecap:round;stroke-linejoin:round;stroke-width:15.12px;}</style></defs><g id="COPY"><ellipse class="cls-1" cx="50.87" cy="412.68" rx="43.31" ry="44.03"/><path class="cls-1" d="m406.02,232.14s-112.61,0-147.26,0c-8.66,0-47.64,0-34.67,44.03,7.82,26.53,26,52.84,34.67,88.07h-121.27c-21.66,0-34.65,8.81-34.65,26.42v44.03c0,13.21,12.99,26.42,25.99,26.42h216.55c17.32,0,34.65-17.61,17.32-52.84-19.41-38.92-77.96-132.1-77.96-132.1l181.9-17.61"/><path class="cls-1" d="m397.35,443.5l86.62-17.61,147.26,8.81"/><path class="cls-1" d="m371.37,373.05l259.86,26.42"/><path class="cls-1" d="m289.08,214.52s12.99-61.65,21.66-70.46c15.07-15.33,103.29-48.78,121.27-52.84,17.98-4.06,25.99,8.81,34.65,17.61,7.53,8.64,37.3,49.44,43.31,61.65,6.01,12.21,8.66,17.61,0,26.42-7.14,7.17-51.97,44.03-51.97,44.03"/><path class="cls-1" d="m319.4,214.52l8.66-44.03,17.32,44.03"/><path class="cls-1" d="m423.34,232.14l60.63-52.84-34.65-35.23v44.03"/><ellipse class="cls-1" cx="375.7" cy="51.59" rx="43.31" ry="44.03"/><path class="cls-1" d="m356.45,284.98v70.46"/><path class="cls-1" d="m466.65,276.17l17.32,52.84v35.23"/><path class="cls-1" d="m414.68,360.49l8.66-40.28,8.66,39.63"/></g></svg>