<?xml version="1.0" encoding="UTF-8"?><svg id="Layer_2" xmlns="http://www.w3.org/2000/svg" viewBox="0 0 628.34 402.02"><defs><style>.cls-1{fill:none;stroke:#005387;stroke-linecap:round;stroke-linejoin:round;stroke-width:15.12px;}</style></defs><g id="COPY"><g id="g4443"><g id="g4445"><g id="g4447"><g id="g4453"><path id="path4455" class="cls-1" d="m7.56,394.46h613.23"/></g></g></g><g id="g4461"><g id="g4463"><g id="g4469"><path id="path4471" class="cls-1" d="m213.43,301.98c23.77-30.15,56.44-64.33,65.71-73.98,30.5-31.73,68.26-49.18,91.02-65.58,14.44-10.4,57.76-41.62,57.76-41.62"/></g><g id="g4473"><path id="path4475" class="cls-1" d="m493,45.25l-65.05,75.57,43.45,37.41.07-.04c14.19-8.24,25.97-26.25,26.79-42.64,17.96-20.86,15.61-52.33-5.25-70.29Z"/></g><g id="g4477"><path id="path4479" class="cls-1" d="m471.47,158.18c-27.05,22.35-58.22,48.13-88.03,75.25-28.89,26.28-51.33,58.87-65.92,95.09h0c-16.04,39.84-54.68,65.93-97.63,65.93h-35.7"/></g><g id="g4481"><path id="path4483" class="cls-1" d="m373.84,289.66c0-57.88,51.51-104.81,115.06-104.81s115.06,46.92,115.06,104.81-51.51,104.81-115.06,104.81-115.06-46.92-115.06-104.81Z"/></g><g id="g4485"><path id="path4487" class="cls-1" d="m75.12,304.89c3.97,9.17,8.61,18.08,13.85,26.6,23.85,38.77,66.47,62.97,111.99,62.97h0"/></g><g id="g4489"><path id="path4491" class="cls-1" d="m156.54,98.36v-14.96c0-28.91-23.45-52.34-52.36-52.34h0s-.08,0-.12,0c-4.09-13.6-16.7-23.51-31.63-23.5-18.24,0-33.03,14.79-33.02,33.03,0,11.47,5.85,21.57,14.72,27.49-1.48,4.85-2.29,10-2.29,15.33v14.96c0,28.91,23.45,52.35,52.36,52.34h0c28.91,0,52.34-23.44,52.34-52.36Z"/></g><g id="g4493"><path id="path4495" class="cls-1" d="m145.74,80.26h-20.28c-14.59,0-27.96,8.15-34.66,21.11h-38.83"/></g><g id="g4497"><path id="path4499" class="cls-1" d="m111.36,210.93l-37.12,55.25v78.43c23.33,0,42.25,18.92,42.25,42.25v7.6h-52.22c-22.03,0-39.88-17.86-39.88-39.88v-103.55l34.86-70.35c8.78-17.73,31.96-22.36,46.88-9.37h0c11.48,10,13.73,26.98,5.24,39.62Z"/></g><g id="g4501"><path id="path4503" class="cls-1" d="m213.43,301.98l-67.69,80.01"/></g><g id="g4505"><path id="path4507" class="cls-1" d="m116.49,153.65l29.24,15.23s47.57,23.32,28.58,76.02l41.69,53.84"/></g></g></g></g></g></svg>