<?xml version="1.0" encoding="UTF-8"?><svg id="Layer_2" xmlns="http://www.w3.org/2000/svg" viewBox="0 0 436.06 239.28"><defs><style>.cls-1{fill:none;stroke:#005387;stroke-linecap:round;stroke-linejoin:round;stroke-width:15.12px;}</style></defs><g id="COPY"><g id="g3309"><g id="g3311"><g id="g3313"><g id="g3319"><path id="path3321" class="cls-1" d="m120.49,7.56h-61.6c-5.67,0-10.27,4.6-10.27,10.27v203.63c0,5.67,4.6,10.27,10.27,10.27h61.6c5.67,0,10.27-4.6,10.27-10.27V17.83c0-5.67-4.6-10.27-10.27-10.27Z"/></g><g id="g3323"><path id="path3325" class="cls-1" d="m17.83,34.08h20.53c5.67,0,10.27,4.6,10.27,10.27v150.58c0,5.67-4.6,10.27-10.27,10.27h-20.53c-5.67,0-10.27-4.6-10.27-10.27V44.35c0-5.67,4.6-10.27,10.27-10.27Z"/></g><g id="g3327"><path id="path3329" class="cls-1" d="m315.56,7.56h61.6c5.67,0,10.27,4.6,10.27,10.27v203.63c0,5.67-4.6,10.27-10.27,10.27h-61.6c-5.67,0-10.27-4.6-10.27-10.27V17.83c0-5.67,4.6-10.27,10.27-10.27Z"/></g><g id="g3331"><path id="path3333" class="cls-1" d="m418.23,34.08h-20.53c-5.67,0-10.27,4.6-10.27,10.27v150.58c0,5.67,4.6,10.27,10.27,10.27h20.53c5.67,0,10.27-4.6,10.27-10.27V44.35c0-5.67-4.6-10.27-10.27-10.27Z"/></g><g id="g3335"><path id="path3337" class="cls-1" d="m130.76,143.59v-47.91h174.54v47.91h-174.54Z"/></g></g></g></g></g></svg>