<?xml version="1.0" encoding="UTF-8"?><svg id="Layer_2" xmlns="http://www.w3.org/2000/svg" viewBox="0 0 460.15 454.34"><defs><style>.cls-1{fill:none;stroke:#005387;stroke-linecap:round;stroke-linejoin:round;stroke-width:15.12px;}</style></defs><g id="COPY"><path class="cls-1" d="m77,57.85c0-27.73,22.56-50.29,50.29-50.29s50.28,22.56,50.28,50.29-22.56,50.28-50.28,50.28c-27.73,0-50.29-22.56-50.29-50.28Z"/><path class="cls-1" d="m259.06,114.47c0-23.89,19.44-43.33,43.33-43.33s43.33,19.44,43.33,43.33-19.44,43.33-43.33,43.33c-23.89,0-43.33-19.44-43.33-43.33Z"/><path class="cls-1" d="m226.75,266.28c-6.85,15.32-21.77,16.53-29.43,10.89-3.85-3.39-11.29-12.09-5.64-23.38,0,0,17.47-36.63,16.13-38.7,0,0-21.77-35.17-21.77-31.85,0,0-1.36,109.87,0,111.27l108.62,112.18c5.81,5.94,16.12,19.44,2.25,32.96-16.37,14.3-29.9-1.15-35.88-7.26l-127.09-125.79c-2.77-2.76-7.22-2.91-10.18-.35l-52.85,46.61c-1.65,1.42-2.59,3.49-2.59,5.66v47.26c0,27.01-4.43,39.11-26.21,39.11s-25.4-14.92-25.4-39.11v-57.65c0-2.07.8-4.02,2.25-5.49l45.98-46.49c1.39-1.4,2.16-3.29,2.16-5.26,0,0,.6-109.01-.81-106.84l-19.75,29.83c-1.35,2.07,12.9,39.11,12.9,39.11,9.27,26.21-20.16,39.91-30.69,17.03l-18.54-44.1c-4.47-10.62-3.24-22.79,3.26-32.3l26.53-38.83c19.27-29.48,50.05-35.64,85.28-35.64s70.65,4.63,89.93,34.11l25.52,36.46c6.55,9.36,7.96,21.39,3.74,32l-17.71,44.58Z"/><path class="cls-1" d="m247.65,183.03c14.87-10.6,32.86-16.5,51.76-16.5,30.23,0,63.88,6.61,80.42,31.9l18.85,28.64c4.9,7.44,5.96,16.76,2.86,25.11l-15.06,40.6c-5.88,13.15-18.68,14.18-25.25,9.34-3.3-2.91-9.69-10.38-4.84-20.06,0,0,14.99-31.43,13.84-33.21,0,0-18.68-30.18-18.68-27.33,0,0-1.17,94.27,0,95.48l93.2,96.25c4.98,5.1,13.83,16.68,1.93,28.28-14.05,12.27-25.66-.99-30.79-6.23l-109.05-107.93c-2.38-2.37-6.19-2.5-8.73-.3l-42.7,37.49"/><path class="cls-1" d="m243.59,321.85c1.19-1.2,5.9-4.74,5.9-6.44,0,0,.51-53.91-.69-52.04"/><path class="cls-1" d="m236.46,444.19c-2.73,1.44-6.64,2.58-12.18,2.58-14.15,0-18.18-15.07-18.18-23.12v-17.89"/></g></svg>