<?xml version="1.0" encoding="UTF-8"?><svg id="Layer_2" xmlns="http://www.w3.org/2000/svg" viewBox="0 0 506.98 477.72"><defs><style>.cls-1{fill:none;stroke:#005387;stroke-linecap:round;stroke-linejoin:round;stroke-width:15.12px;}</style></defs><g id="COPY"><path class="cls-1" d="m251.73,80.23c-20.07,0-36.34-16.26-36.34-36.33,0-20.07,16.26-36.34,36.33-36.34s36.34,16.26,36.34,36.33h0c-.02,20.06-16.28,36.32-36.33,36.34h0Z"/><path class="cls-1" d="m325.73,185.6l3.7-24.25c3.09-20.47-7.87-40.48-26.78-48.9-3.22-1.43-7.01-.22-8.8,2.82l-29.16,49.59c-1.67,2.83-4.13,5.11-7.08,6.56l-72.4,35.7c-8.35,4.11-18.45.68-22.57-7.67-.07-.15-.14-.3-.21-.45-.99-2.15-1.46-4.51-1.36-6.87.22-6.7,4.12-12.72,10.13-15.68h0s65.13-32.13,65.13-32.13c1.21-.6,2.23-1.54,2.91-2.71l41.26-70.21c2.71-4.58,7.41-7.61,12.69-8.19.61-.09,1.23-.12,1.84-.11,46.4.04,84.01,37.65,84.06,84.05l-.04,61.73h-.59"/><path class="cls-1" d="m32.87,216.63c0-20.07,16.27-36.34,36.34-36.34,20.07,0,36.34,16.27,36.34,36.34,0,20.07-16.27,36.34-36.34,36.34h0c-20.06-.02-36.31-16.28-36.33-36.34h0Z"/><path class="cls-1" d="m226.85,187.89h89.16c.4,0,.83,0,1.59.04,19.9.39,38.94,8.18,53.4,21.87,1.29,1.22,2.99,1.9,4.76,1.9h64.99c60.23,0,55.34,24.05,58.67,41.28H159.61c-3.83,0-6.94,3.11-6.94,6.95v57.82l-22.5,49.79c-2.7,6.22-15.24,24.27-28.3,18.47-16.69-7.98-13.33-20.01-11.43-27.67.24-.96.57-1.89,1-2.77l14.63-33.6v-.03c.18-.42.32-.87.42-1.32.1-.47.15-.94.15-1.42v-86.31c0-42.09,24.97-44.99,55.45-44.99"/><path class="cls-1" d="m317.65,319.28l-38.67,38.32c-1.32,1.3-2.06,3.08-2.06,4.93v76.36c-.02,9.34-7.6,16.89-16.94,16.87-.16,0-.31,0-.47,0-9.33-.64-16.52-8.5-16.32-17.85v-85.29c.01-4.49,1.82-8.8,5.02-11.95.24-.24.47-.49.67-.76l16.88-22.28h52.21l-.34,1.65Z"/><path class="cls-1" d="m352.86,455.64c-9.2,1.17-17.6-5.35-18.77-14.55-.02-.15-.04-.31-.05-.46l-11.36-70.08c-.21-1.77-.14-3.56.19-5.31l7.6-39.12,8.6-8.5h27.44l-9.83,50.4c-.16.81-.17,1.64-.04,2.45l10.92,66.53c1.04,9.19-5.52,17.5-14.69,18.64h-.02Z"/><path class="cls-1" d="m499.43,309.27c0,2.33-.88,4.22-1.96,4.22H154.61c-1.07,0-1.94-1.89-1.94-4.22v-52.02c0-2.3.87-4.22,1.94-4.22h342.86c1.07,0,1.96,1.92,1.96,4.22v52.02Z"/><path class="cls-1" d="m106.65,309.27c0,2.33-.24,4.22-.54,4.22H8.09c-.29,0-.53-1.89-.53-4.22v-52.02c0-2.3.24-4.22.53-4.22h98.02c.29,0,.54,1.92.54,4.22v52.02Z"/><path class="cls-1" d="m25.92,463.61v-149.86h37.32v149.86c0,3.62-2.93,6.55-6.55,6.55h-24.21c-3.62,0-6.55-2.93-6.55-6.55Z"/><path class="cls-1" d="m445.41,463.61v-149.86h37.32v149.86c0,3.62-2.93,6.55-6.55,6.55h-24.21c-3.62,0-6.55-2.93-6.55-6.55Z"/></g></svg>