<?xml version="1.0" encoding="UTF-8"?><svg id="Layer_2" xmlns="http://www.w3.org/2000/svg" viewBox="0 0 413.73 390.38"><defs><style>.cls-1{fill:none;stroke:#005387;stroke-linecap:round;stroke-linejoin:round;stroke-width:15.12px;}</style></defs><g id="COPY"><path id="path3198" class="cls-1" d="m241.9,125.12c-12.35,0-24.03,2.52-35.03,6.44-11.01-3.91-22.68-6.44-35.03-6.44-58.05,0-105.1,47.06-105.1,105.1s47.06,152.59,105.1,152.59c12.3,0,24.06-4.4,35.03-11.59,10.97,7.19,22.73,11.59,35.03,11.59,58.05,0,105.1-94.55,105.1-152.59s-47.06-105.1-105.1-105.1Z"/><path id="path3202" class="cls-1" d="m148.48,7.56c32.25,0,58.39,26.14,58.39,58.39v59.17"/><path id="path3206" class="cls-1" d="m230.22,77.63h-23.36c0-38.7,31.37-70.07,70.07-70.07h23.36c0,38.7-31.37,70.07-70.07,70.07Z"/><path id="path3210" class="cls-1" d="m7.56,241.9h129.24l23.36-23.36,23.36,70.07,46.71-93.43,23.36,70.07,23.36-23.36h129.24"/></g></svg>