<?xml version="1.0" encoding="UTF-8"?><svg id="Layer_2" xmlns="http://www.w3.org/2000/svg" viewBox="0 0 469.19 405.5"><defs><style>.cls-1{fill:none;stroke:#005387;stroke-linecap:round;stroke-linejoin:round;stroke-width:15.12px;}</style></defs><g id="COPY"><path class="cls-1" d="m404.6,298.84c4.21,1.4,7.29,5.01,8.02,9.39l9.11,54.7h-111.12l-5.18-16.57,13.24-30.12c1.11-2.53,3.07-4.61,5.53-5.86l41.08-20.9c2.84-1.44,6.19-1.7,9.2-.69l30.12,10.03Z"/><path class="cls-1" d="m266.33,288.05l4.33-18.19c1.02-4.25,4.25-7.59,8.44-8.77l78.01-21.66c5.18-1.44,10.71.78,13.46,5.39l15.53,25.85c1.13,1.87,1.72,4,1.72,6.17v16.34"/><path class="cls-1" d="m310.62,362.93h-124.22l13.93-59.9c1.16-4.99,5.35-8.7,10.45-9.2l66.17-6.62c5.61-.57,10.93,2.95,12.61,8.33l21.05,67.39Z"/><path class="cls-1" d="m183.73,229.96l7.15-26.75c.55-2.72,2.01-5.16,4.23-6.95,2.82-2.29,6.5-3.14,10.05-2.36l105.47,23.12s.05.01.07.02c3.64.84,6.26,4.06,6.85,7.76l3.69,23.04"/><path class="cls-1" d="m93.9,299.93l-7.41-32c-.24-.94-.36-1.91-.36-2.91v-25.73c0-5.44,3.67-10.21,8.94-11.59l40.2-10.45c.29-.09.59-.17.87-.28l.95-.26c2.3-.59,4.73-.5,6.98.28l68.86,24c4.02,1.4,7.02,4.85,7.81,9.03l8.01,41.09"/><path class="cls-1" d="m64.3,316.51c1.18-3.53,4-6.34,7.54-7.52l33.67-11.23c2.43-.8,4.99-.81,7.43-.05l82.46,26.29-9.06,38.94H48.58l15.72-46.42Z"/><path class="cls-1" d="m461.63,395.5c0,1.35-1.11,2.44-2.46,2.44H10c-1.35,0-2.44-1.09-2.44-2.44v-30.12c0-1.33,1.09-2.44,2.44-2.44h449.17c1.35,0,2.46,1.11,2.46,2.44v30.12Z"/><path class="cls-1" d="m336.17,160.1c3.57-1.77,9.53-4.74,10.49-12.26.96-7.53-4.07-11.9-7.08-14.51-.7-.6-1.68-1.46-2.16-2.02.6-.43,1.77-1.01,2.6-1.42,3.57-1.77,9.53-4.74,10.49-12.26.96-7.53-4.07-11.89-7.08-14.5-.7-.6-1.68-1.46-2.16-2.02.6-.42,1.77-1.01,2.59-1.41,3.57-1.77,9.53-4.73,10.49-12.26"/><path class="cls-1" d="m241.06,138.81c3.31-2.21,8.86-5.91,8.86-13.49s-5.54-11.28-8.86-13.49c-.77-.51-1.85-1.24-2.4-1.74.54-.5,1.63-1.22,2.4-1.74,3.31-2.21,8.86-5.9,8.86-13.49s-5.54-11.28-8.86-13.49c-.77-.51-1.85-1.24-2.39-1.73.54-.5,1.63-1.22,2.39-1.73,3.31-2.21,8.86-5.9,8.86-13.49"/><path class="cls-1" d="m146.4,178.07c2.98-2.64,7.96-7.07,6.92-14.58s-7.04-10.42-10.62-12.15c-.83-.4-2.01-.97-2.61-1.39.47-.57,1.45-1.44,2.14-2.05,2.98-2.64,7.96-7.06,6.92-14.58-1.04-7.52-7.04-10.42-10.62-12.15-.83-.4-2.01-.97-2.61-1.39.47-.57,1.44-1.43,2.13-2.04,2.98-2.64,7.96-7.06,6.92-14.58"/><path class="cls-1" d="m181.81,56.42c2.92-2.71,7.81-7.24,6.6-14.73-1.2-7.49-7.26-10.26-10.88-11.92-.84-.38-2.03-.93-2.64-1.33.46-.58,1.41-1.47,2.09-2.09,2.92-2.71,7.81-7.23,6.6-14.73"/><path class="cls-1" d="m298.32,50.95c3.43-2.02,9.17-5.41,9.59-12.98.42-7.58-4.91-11.57-8.09-13.96-.74-.55-1.78-1.34-2.3-1.87.57-.47,1.69-1.13,2.49-1.6,3.43-2.02,9.17-5.4,9.59-12.98"/></g></svg>