<?xml version="1.0" encoding="UTF-8"?><svg id="Layer_2" xmlns="http://www.w3.org/2000/svg" viewBox="0 0 362.35 468.68"><defs><style>.cls-1{fill:none;stroke:#005387;stroke-linecap:round;stroke-linejoin:round;stroke-width:15.12px;}</style></defs><g id="COPY"><path class="cls-1" d="m218.68,178.47v16.29c0,3.92,2.91,7.23,6.8,7.73,21.24,2.74,38.51,8.08,53.05,16.24,3.6,2.02,7.5,3.4,11.54,4.2,64.68,7.57,59.86,67.73,59.86,67.73.09,6-.39,12.48-1.54,19.45-.89,5.39-.71,10.91.42,16.25,10.05,47.51,5.78,103.89-.68,131.24-.48,2.06-2.32,3.51-4.44,3.51h-45c-2.2,0-4.08-1.56-4.48-3.71-2.58-13.96-11.91-64.33-18.8-100.85-1.69,3.01-3.59,5.9-5.7,8.6-6.4,8.21-10.08,18.22-10.08,28.63v61.63c0,3.16-2.55,5.71-5.71,5.71H108.43c-3.16,0-5.71-2.55-5.71-5.71v-61.63c0-10.41-3.69-20.41-10.09-28.63-2.12-2.7-4.02-5.59-5.7-8.6-6.89,36.52-16.22,86.89-18.8,100.85-.4,2.15-2.28,3.71-4.48,3.71H18.65c-2.12,0-3.95-1.45-4.44-3.51-6.45-27.35-10.72-83.73-.68-131.24,1.13-5.35,1.31-10.86.42-16.25-9.45-57.35,25.91-80.8,58.31-87.18,4.04-.79,7.95-2.18,11.54-4.2,14.54-8.17,31.81-13.51,53.05-16.24,3.89-.5,6.8-3.81,6.8-7.73v-16.29"/><path class="cls-1" d="m103.88,108.11l-2.6-5c-3.3-6.36-5.03-13.43-5.03-20.61v-42.41c0-17.97,14.56-32.53,32.53-32.53h96.97c8.5,0,15.39,6.89,15.39,15.4v6.73c0,3.44,2.79,6.23,6.23,6.23h3.68c8.31,0,15.05,6.73,15.05,15.05v31.54c0,7.17-1.72,14.25-5.03,20.61l-2.6,5"/><path class="cls-1" d="m124.78,149.62h-15.93c-7,0-12.68-5.68-12.68-12.68v-17.17c0-7,5.68-12.68,12.68-12.68h15.93"/><path class="cls-1" d="m237.57,107.1h15.93c7,0,12.68,5.68,12.68,12.68v17.17c0,7-5.68,12.68-12.68,12.68h-15.93"/><path class="cls-1" d="m214.76,63.04h-67.17c-12.6,0-22.82,10.21-22.82,22.82v65.73c0,5.06,2,9.91,5.57,13.5l15.51,15.58c4.9,4.92,11.55,7.69,18.5,7.69h33.64c6.94,0,13.6-2.77,18.5-7.69l15.51-15.58c3.57-3.59,5.57-8.44,5.57-13.5v-65.73c0-12.6-10.21-22.82-22.81-22.82Z"/><path class="cls-1" d="m78.31,323.42c0,15.72,5.34,30.2,14.3,41.71,6.42,8.24,10.11,18.28,10.11,28.72v61.55c0,3.15,2.56,5.71,5.71,5.71h145.49c3.15,0,5.71-2.56,5.71-5.71v-61.55c0-10.45,3.69-20.48,10.11-28.72,8.96-11.51,14.3-25.99,14.3-41.71"/><line class="cls-1" x1="354.72" y1="381.88" x2="280.17" y2="381.88"/><path class="cls-1" d="m106.77,208.91c11.11,26.88,40.23,46.07,74.4,46.07s63.29-19.19,74.4-46.07"/><line class="cls-1" x1="82.18" y1="381.88" x2="7.63" y2="381.88"/><path class="cls-1" d="m194.17,308.38c19.68-9.04,66.14-36.49,71.25-95.94"/><path class="cls-1" d="m96.94,212.44c5.1,59.52,51.68,86.97,71.32,95.98"/><path class="cls-1" d="m205.18,328.54c0-13.48-11.11-24.36-24.68-23.99-13.07.36-23.33,11.41-23.33,24.49v53.93c0,3.04,2.46,5.5,5.5,5.5h19.42c3.04,0,5.5-2.46,5.5-5.5v-27.96c0-1.92,1.18-3.63,2.94-4.38,8.6-3.65,14.63-12.17,14.63-22.09Z"/></g></svg>